# xmcd CD database file
#
# Track frame offsets:
#	150
#	22945
#	47012
#	71215
#	90599
#	117621
#	142560
#	159657
#	182740
#	211939
#
# Disc length: 3064 seconds
#
# Revision: 0
# Processed by: cddbd v1.4PL0 Copyright (c) Steve Scherf et al.
# Submitted via: CDex 1.50
#
DISCID=830bf60a
DTITLE=ERIC LEONARD - Breakin' The Rules
DYEAR=2002
DGENRE=Jazz
TTITLE0=Mr. Sylas
TTITLE1=Beautiful Ones
TTITLE2=Another Time Perhaps
TTITLE3=Nature
TTITLE4=Forever Untitled
TTITLE5=Blue Tune
TTITLE6=Smooth J
TTITLE7=Without a Klew
TTITLE8=Fidget
TTITLE9=Through Your Eyes
EXTD=YEAR: 2002
EXTT0=
EXTT1=
EXTT2=
EXTT3=
EXTT4=
EXTT5=
EXTT6=
EXTT7=
EXTT8=
EXTT9=
PLAYORDER=
